<?xml version="1.0" standalone="no"?>
<!DOCTYPE svg PUBLIC "-//W3C//DTD SVG 20010904//EN"
 "http://www.w3.org/TR/2001/REC-SVG-20010904/DTD/svg10.dtd">
<svg version="1.0" xmlns="http://www.w3.org/2000/svg"
 width="143.000000pt" height="143.000000pt" viewBox="0 0 143.000000 143.000000"
 preserveAspectRatio="xMidYMid meet">
<metadata>
Created by potrace 1.14, written by Peter Selinger 2001-2017
</metadata>
<g transform="translate(0.000000,143.000000) scale(0.100000,-0.100000)"
fill="#000000" stroke="none">
<path d="M566 1393 c-119 -27 -201 -77 -311 -187 -163 -162 -193 -218 -170
-316 2 -8 4 -25 4 -37 1 -26 72 -83 103 -83 11 0 33 9 49 21 24 17 29 18 29 5
0 -10 9 -16 21 -16 21 0 21 -3 17 -87 -3 -49 -8 -96 -12 -105 -6 -13 0 -19 31
-27 75 -19 76 -19 89 24 7 25 8 44 2 52 -5 6 -9 56 -10 111 l0 100 -43 12
c-41 12 -64 33 -46 44 4 3 7 15 6 28 -1 13 4 36 12 52 8 15 10 25 4 22 -6 -4
-3 8 7 26 9 18 20 35 25 36 4 2 7 10 7 18 0 17 60 56 77 50 7 -3 10 1 7 8 -5
12 44 42 53 32 2 -2 -5 -7 -16 -11 -11 -3 -18 -12 -15 -19 6 -17 -22 -40 -37
-30 -8 5 -9 3 -4 -6 4 -7 4 -15 -1 -19 -5 -3 -15 -19 -22 -35 -11 -25 -11 -28
1 -18 8 7 17 8 21 4 4 -4 6 -2 4 3 -4 12 21 48 42 60 13 8 13 6 2 -8 -12 -14
-11 -16 7 -14 12 1 21 6 21 12 0 10 64 49 84 51 6 0 19 4 29 9 10 4 21 5 24 1
3 -3 13 0 21 7 13 10 14 9 8 -1 -6 -10 3 -12 44 -10 31 2 55 8 57 16 3 7 10 9
17 4 6 -5 21 -9 33 -10 27 -1 113 -40 113 -51 0 -5 13 -14 30 -21 16 -7 42
-24 58 -39 60 -56 67 -60 82 -51 12 7 12 11 0 27 -8 10 2 3 21 -15 20 -18 47
-55 59 -83 13 -27 27 -49 32 -49 5 0 6 -5 3 -10 -4 -6 -2 -16 4 -23 7 -9 5
-13 -9 -13 -10 0 -17 3 -15 6 2 4 -5 19 -17 36 -19 27 -19 22 -1 -23 6 -16 5
-16 -10 -5 -15 12 -15 11 -7 -19 16 -54 5 -44 -35 33 -21 40 -42 75 -47 76 -4
2 -6 8 -2 13 10 17 -109 124 -163 146 -29 12 -53 18 -53 13 0 -4 21 -16 47
-26 26 -10 70 -40 97 -66 49 -47 49 -47 25 -57 -13 -5 -43 -17 -66 -26 l-43
-17 0 -69 c0 -38 -3 -69 -6 -69 -3 0 -15 5 -26 11 -16 9 -23 8 -29 -2 -14 -23
-10 81 6 141 8 30 12 56 9 59 -3 3 -41 15 -84 27 l-78 21 -16 -56 c-19 -69
-20 -79 -3 -95 15 -16 14 -347 -2 -389 -22 -57 -17 -63 69 -85 44 -11 82 -16
85 -12 2 4 11 34 20 66 13 52 13 59 0 67 -10 5 -15 24 -15 62 l0 54 35 -20
c40 -24 44 -49 21 -137 -16 -61 -19 -58 82 -82 28 -6 52 -15 52 -18 0 -21
-129 -86 -212 -107 -39 -11 -48 -11 -52 1 -3 8 0 14 6 14 6 0 9 3 5 6 -3 3
-14 1 -24 -5 -10 -6 -12 -11 -5 -11 6 0 12 -4 12 -8 0 -14 -195 -4 -246 14
-59 20 -184 100 -184 118 0 3 21 -9 48 -28 55 -39 106 -66 124 -66 7 0 -10 11
-37 24 -28 12 -75 43 -105 68 -30 24 -63 47 -73 51 -9 3 -17 14 -17 24 0 15
-2 16 -10 3 -5 -8 -10 -10 -11 -5 -5 64 -28 96 -25 36 1 -23 1 -41 0 -41 -5 0
-44 68 -44 76 0 5 9 -2 20 -16 23 -30 27 -14 4 18 -12 18 -18 19 -29 9 -14
-13 -9 -26 40 -100 9 -15 15 -27 12 -27 -3 0 -20 23 -38 50 -40 62 -55 65 -29
5 11 -25 17 -45 15 -45 -2 0 -19 25 -37 55 -35 58 -42 64 -52 40 -3 -8 -1 -15
4 -15 6 0 10 -9 10 -21 0 -13 -4 -18 -12 -13 -7 4 -8 3 -4 -5 4 -6 12 -8 18
-5 7 5 9 1 5 -9 -4 -11 -1 -17 8 -17 8 0 15 -5 15 -11 0 -5 -5 -7 -11 -3 -8 4
-8 0 0 -15 7 -11 14 -21 17 -21 3 0 2 5 -2 12 -4 7 -3 8 5 4 6 -4 9 -12 5 -17
-3 -5 0 -17 7 -25 10 -13 10 -17 -2 -25 -11 -8 -10 -9 6 -7 11 2 19 -2 18 -9
-1 -6 4 -17 12 -23 8 -7 15 -17 15 -22 0 -19 -90 80 -123 134 -18 32 -37 55
-42 50 -4 -4 -5 1 -2 11 4 9 2 17 -4 17 -7 0 -9 9 -6 21 4 17 3 19 -6 10 -8
-8 -8 -20 2 -49 26 -75 46 -122 54 -122 4 0 7 -6 7 -14 0 -8 3 -16 8 -18 4 -1
20 -22 36 -46 30 -43 117 -118 191 -163 22 -13 40 -22 40 -21 0 2 20 -6 45
-17 25 -11 56 -21 70 -21 14 0 47 -7 73 -15 35 -10 74 -13 140 -9 51 3 104 7
120 7 15 1 27 5 27 9 0 5 10 8 23 8 50 1 207 80 275 140 42 37 84 98 71 105
-5 4 -5 14 2 27 8 15 13 17 19 9 4 -8 7 -1 7 16 0 15 3 37 7 48 4 11 -2 4 -12
-15 -22 -39 -69 -90 -122 -132 -42 -35 -52 -29 -14 9 101 99 172 252 189 402
3 29 8 58 12 64 3 6 1 7 -5 3 -8 -5 -12 1 -12 18 0 28 -19 76 -31 76 -4 0 -12
14 -18 30 -5 17 -15 30 -20 30 -6 0 -8 6 -5 13 13 36 -104 214 -134 202 -10
-3 -12 0 -8 10 3 8 2 14 -2 13 -4 -1 -27 17 -51 40 -24 23 -53 42 -63 42 -10
0 -18 5 -18 10 0 6 6 10 12 10 19 0 -27 29 -69 45 -21 7 -31 14 -23 14 8 0 42
-11 75 -24 33 -14 61 -25 62 -25 8 0 -7 34 -18 41 -20 12 6 12 30 0 13 -7 18
-6 18 5 0 13 -13 18 -44 17 -7 -1 -11 3 -8 7 2 4 -35 20 -83 35 -48 15 -90 33
-94 39 -4 6 -8 7 -8 1 0 -6 -23 -9 -55 -7 -30 2 -55 8 -55 14 0 7 -5 7 -12 1
-14 -10 -28 -11 -43 -2 -5 4 -37 0 -69 -8z m457 -215 c40 -29 33 -29 -23 -1
-27 14 -50 27 -50 30 0 8 45 -9 73 -29z m107 -315 c63 -134 63 -254 -1 -381
-18 -34 -33 -61 -35 -59 -2 1 3 25 10 52 10 43 10 51 -4 65 -12 12 -16 34 -15
81 1 68 -2 73 -62 104 l-26 14 40 16 c46 19 49 26 48 113 0 34 3 62 7 62 3 0
21 -30 38 -67z m67 -105 c-3 -8 -6 -5 -6 6 -1 11 2 17 5 13 3 -3 4 -12 1 -19z
m68 -150 c-4 -24 -14 -54 -21 -68 l-14 -25 6 26 c3 14 6 32 8 40 7 33 19 69
23 69 3 0 2 -19 -2 -42z m-48 -151 c-15 -28 -67 -94 -67 -85 0 12 63 108 71
108 4 0 2 -10 -4 -23z m-1118 -34 c12 -24 19 -43 16 -43 -5 0 -45 75 -45 86 0
11 6 2 29 -43z m257 0 c-7 -7 -26 7 -26 19 0 6 6 6 15 -2 9 -7 13 -15 11 -17z
m-125 0 c13 -16 12 -17 -3 -4 -10 7 -18 15 -18 17 0 8 8 3 21 -13z"/>
<path d="M1170 1181 c0 -5 12 -16 26 -26 l25 -16 -16 25 c-17 26 -35 34 -35
17z"/>
<path d="M1152 1147 c18 -18 48 -48 66 -66 17 -18 32 -30 32 -26 0 10 -112
125 -122 125 -4 0 6 -15 24 -33z"/>
<path d="M1110 1146 c0 -2 8 -10 18 -17 15 -13 16 -12 3 4 -13 16 -21 21 -21
13z"/>
<path d="M838 1118 c5 -5 16 -8 23 -6 8 3 3 7 -10 11 -17 4 -21 3 -13 -5z"/>
<path d="M461 849 c-9 -31 -10 -44 -1 -49 10 -6 9 -86 -2 -189 -3 -23 3 -26
97 -52 55 -15 107 -28 116 -28 20 -1 45 74 31 92 -5 7 -9 54 -8 105 0 52 -1
98 -4 102 -5 8 -184 60 -206 60 -6 0 -16 -19 -23 -41z m124 -87 c16 -11 13
-112 -2 -112 -15 0 -14 -2 -17 68 -2 52 0 58 19 44z"/>
<path d="M1355 790 c-3 -5 -1 -10 4 -10 6 0 11 5 11 10 0 6 -2 10 -4 10 -3 0
-8 -4 -11 -10z"/>
<path d="M1368 690 c2 -33 8 -58 13 -54 5 3 9 14 9 25 0 10 5 19 10 19 15 0
11 12 -13 42 l-22 27 3 -59z"/>
<path d="M1337 708 c3 -18 9 -37 14 -42 4 -5 6 0 4 10 -2 11 -4 29 -4 42 -1
12 -5 22 -11 22 -5 0 -7 -14 -3 -32z"/>
<path d="M130 635 c0 -8 4 -15 10 -15 5 0 7 7 4 15 -4 8 -8 15 -10 15 -2 0 -4
-7 -4 -15z"/>
<path d="M578 303 c7 -3 16 -2 19 1 4 3 -2 6 -13 5 -11 0 -14 -3 -6 -6z"/>
<path d="M628 293 c7 -3 16 -2 19 1 4 3 -2 6 -13 5 -11 0 -14 -3 -6 -6z"/>
<path d="M690 292 c0 -4 16 -6 35 -4 19 2 35 6 35 8 0 2 -16 4 -35 4 -19 0
-35 -4 -35 -8z"/>
</g>
</svg>
